<svg xmlns="http://www.w3.org/2000/svg" width="31" height="31" viewBox="0 0 31 31">
  <defs>
    <style>
      .cls-1 {
        fill: #fff;
        fill-rule: evenodd;
      }
    </style>
  </defs>
  <path id="_2" data-name="2" class="cls-1" d="M29.785,8.334l-7.15,7.15a4.027,4.027,0,0,1-3.893,1.033L28.355,6.9a2.022,2.022,0,0,0,0-2.86l-1.43-1.43a2.022,2.022,0,0,0-2.86,0l-9.614,9.614a4.027,4.027,0,0,1,1.033-3.893l7.15-7.15a4.045,4.045,0,0,1,5.72,0l1.43,1.43A4.045,4.045,0,0,1,29.785,8.334ZM18.7,12.282a1.011,1.011,0,0,1,0,1.43L13.7,18.718a1.011,1.011,0,1,1-1.43-1.43l5.005-5.005A1.011,1.011,0,0,1,18.7,12.282ZM2.614,26.925l1.43,1.43a2.022,2.022,0,0,0,2.86,0l9.614-9.614a4.027,4.027,0,0,1-1.033,3.893l-7.15,7.151a4.045,4.045,0,0,1-5.72,0l-1.43-1.43a4.045,4.045,0,0,1,0-5.72l7.15-7.15a4.028,4.028,0,0,1,3.894-1.033L2.614,24.065A2.022,2.022,0,0,0,2.614,26.925Z"/>
</svg>
