<svg id="logo.svg" xmlns="http://www.w3.org/2000/svg" width="180" height="182" viewBox="0 0 180 182">
  <defs>
    <style>
      .cls-1 {
        fill: #181731;
      }

      .cls-1, .cls-2 {
        stroke: #fff;
        stroke-linejoin: round;
        stroke-width: 2px;
        fill-rule: evenodd;
      }

      .cls-2 {
        fill: #ffa800;
      }
    </style>
  </defs>
  <path id="長方形_4_のコピー_3" data-name="長方形 4 のコピー 3" class="cls-1" d="M62.569,42.877l-19.8,19.8L78.833,98.738,90.854,86.718l50.2,50.2-43.84,43.841-50.2-50.205L57.62,119.952,0.344,62.676,41.356,21.664h0L62.569,0.45l49.5,49.5L90.854,71.161Z"/>
  <path id="長方形_2" data-name="長方形 2" class="cls-2" d="M39.942,137.629l31.113-31.112,12.021,12.02L51.963,149.65Z"/>
  <path id="長方形_2_のコピー" data-name="長方形 2 のコピー" class="cls-2" d="M50.549,148.236l31.113-31.113,12.021,12.021L62.569,160.257Z"/>
  <path id="長方形_2_のコピー_3" data-name="長方形 2 のコピー 3" class="cls-2" d="M61.155,158.842L92.268,127.73l12.021,12.021L73.176,170.863Z"/>
  <path id="長方形_2_のコピー_4" data-name="長方形 2 のコピー 4" class="cls-2" d="M71.762,169.449l31.112-31.113L114.9,150.357,83.783,181.47Z"/>
  <path id="長方形_2_のコピー_9" data-name="長方形 2 のコピー 9" class="cls-2" d="M179.949,61.262L158.736,82.475h0L135.291,105.92l12.131,11.91L134.28,130.972,102.308,99.3,88.732,112.88,76.711,100.86l26.87-26.87L114.188,84.6l23.335-23.334L119.138,42.877,90.854,71.161,69.64,49.948l49.5-49.5,21.213,21.213h0Z"/>
</svg>
