<svg xmlns="http://www.w3.org/2000/svg" width="456.59" height="77.91" viewBox="0 0 456.59 77.91">
  <defs>
    <style>
      .cls-1 {
        fill-rule: evenodd;
      }
    </style>
  </defs>
  <path id="マルチに対応ができる_エンジニアを目指しています" data-name="マルチに対応ができる エンジニアを目指しています" class="cls-1" d="M631.975,1075.69a56.083,56.083,0,0,1,11.7,12.81l1.47-1.26c-2.25-2.97-3.24-4.23-4.5-5.61a45,45,0,0,0,9.99-11.19,7.844,7.844,0,0,1,1.14-1.56l-1.02-1.26a3.22,3.22,0,0,1-1.47.18H631.555a20.4,20.4,0,0,1-3.39-.18v2.01a26.417,26.417,0,0,1,3.36-.15h16.649a7.333,7.333,0,0,0,.87-0.03,1.255,1.255,0,0,0-.24.36,46.873,46.873,0,0,1-5.28,6.93,43.219,43.219,0,0,1-4.02,3.66,62.383,62.383,0,0,0-6.209-5.79Zm37.17-9.93a12.419,12.419,0,0,1,.12,2.13c0,6.3-.42,10.23-1.41,12.87a14.691,14.691,0,0,1-5.13,6.87,4.182,4.182,0,0,1,1.47,1.29,17.744,17.744,0,0,0,5.22-7.29c1.139-3,1.409-5.31,1.619-13.26a13.255,13.255,0,0,1,.18-2.49Zm7.349-.24a15.525,15.525,0,0,1,.09,2.61l-0.15,17.73a4.721,4.721,0,0,1-.18,1.74l0.99,1.2a2.712,2.712,0,0,1,.66-0.3c0.27-.12.6-0.24,0.96-0.39a18.768,18.768,0,0,0,4.32-2.19,17.163,17.163,0,0,0,5.91-7.56,6.39,6.39,0,0,1-1.38-1.47,14.9,14.9,0,0,1-3.72,6.15,13.856,13.856,0,0,1-5.82,3.48l0.18-18.39a10.733,10.733,0,0,1,.18-2.58Zm26.311,9.42a13.351,13.351,0,0,1-3.03-.21v1.92a21.877,21.877,0,0,1,3.03-.15h8.7a12.44,12.44,0,0,1-1.71,5.82c-1.5,2.49-3.809,4.26-7.259,5.61a4.378,4.378,0,0,1,1.38,1.5c3.629-1.8,5.849-3.66,7.409-6.27a14.087,14.087,0,0,0,1.95-6.66h7.53a21.877,21.877,0,0,1,3.03.15v-1.92a13.662,13.662,0,0,1-3.03.21h-7.41c0.06-1.47.06-2.28,0.09-6.27a42.611,42.611,0,0,0,6.51-1.83,7.207,7.207,0,0,1,1.02-.33l-1.29-1.62a12.712,12.712,0,0,1-3.39,1.47,47.592,47.592,0,0,1-12.509,1.92c-0.45,0-.87-0.03-1.74-0.06a5.872,5.872,0,0,1,.63,1.68,54.449,54.449,0,0,0,9-.9c0,3.18-.06,5.16-0.09,5.94h-8.819Zm36.09-9.87a12.981,12.981,0,0,1-.45,2.28,48.791,48.791,0,0,0-1.35,11.88,40.907,40.907,0,0,0,.78,8.4c0.09,0.54.12,0.69,0.18,1.14l1.8-.18a1.874,1.874,0,0,1-.03-0.36c0-1.53,1.11-5.22,2.4-8.01l-1.23-.57a23.488,23.488,0,0,0-1.95,6.15h-0.09a10.175,10.175,0,0,0-.03-1.02c-0.12-2.22-.18-4.29-0.18-5.64a44.959,44.959,0,0,1,.87-9.09,31.629,31.629,0,0,1,1.29-4.62Zm5.939,5.34a26.018,26.018,0,0,0,4.74.36,44.4,44.4,0,0,0,7.74-.6c0.36-.06.42-0.06,0.66-0.09l-0.12-1.77a28.992,28.992,0,0,1-7.95.87,19.593,19.593,0,0,1-5.04-.48Zm2.25,6.12c-1.86,2.1-2.61,3.66-2.61,5.4a4.24,4.24,0,0,0,.9,2.76c1.26,1.5,3.36,2.19,6.69,2.19a32.692,32.692,0,0,0,6.18-.6c0.54-.12.63-0.12,0.99-0.18l-0.27-1.92a18.963,18.963,0,0,1-6.81,1.05c-3.99,0-6.03-1.14-6.03-3.42,0-1.41.69-2.76,2.28-4.5Zm29.611-7.56h-3.48a18.078,18.078,0,0,1-2.73-.18v1.71a15.812,15.812,0,0,1,2.64-.15h6.509a26.231,26.231,0,0,1-1.619,8.28c-1.83-2.28-3.21-3.9-5.01-5.76l-1.17.93a56.617,56.617,0,0,1,5.55,6.33,22.636,22.636,0,0,1-1.83,3.09,21.287,21.287,0,0,1-5.34,5.28,4.885,4.885,0,0,1,1.29,1.08,23.148,23.148,0,0,0,6.81-8.19,47.791,47.791,0,0,1,3.719,6.06l1.29-1.11a54.647,54.647,0,0,0-4.32-6.42,27.113,27.113,0,0,0,2.16-9.57h0.21a20.782,20.782,0,0,1,2.64.12v-1.68a17.263,17.263,0,0,1-2.73.18h-3.059v-2.1a23.044,23.044,0,0,1,.179-3.09h-1.889a14.579,14.579,0,0,1,.18,3.09v2.1Zm15.269,3.27v15.63c0,0.6-.27.75-1.23,0.75a30.971,30.971,0,0,1-4.17-.33,7.636,7.636,0,0,1,.51,1.65c1.17,0.09,2.28.12,3.18,0.12,2.7,0,3.27-.36,3.27-2.13v-15.69h0.81a20.135,20.135,0,0,1,2.97.18v-1.74a19.144,19.144,0,0,1-2.94.18h-0.84v-3.63a24.309,24.309,0,0,1,.18-3.18h-1.95a15.927,15.927,0,0,1,.21,3.18v3.63h-4.92a17.531,17.531,0,0,1-2.85-.15v1.71a18.518,18.518,0,0,1,2.82-.18h4.95Zm-8.1,3.42a26.225,26.225,0,0,1,4.38,6.81l1.32-.96a33.375,33.375,0,0,0-4.47-6.63Zm35.73-8.85h-8.009a22.564,22.564,0,0,1-2.97-.15,37.8,37.8,0,0,1,.12,3.78c0,6.51-.21,10.38-0.75,13.05a15.132,15.132,0,0,1-2.07,5.4,5.534,5.534,0,0,1,1.41,1.08,20.078,20.078,0,0,0,2.28-6.69c0.57-3.15.72-6.57,0.75-15.06h19.529a22.131,22.131,0,0,1,3.18.15v-1.74a19.727,19.727,0,0,1-3.18.18h-8.7v-1.65a7.92,7.92,0,0,1,.18-1.95h-1.95a10.02,10.02,0,0,1,.18,1.95v1.65Zm-7.319,20.28a28.349,28.349,0,0,0,2.7-9.99l-1.589-.42a23.539,23.539,0,0,1-.99,5.73,15.669,15.669,0,0,1-1.62,3.84Zm5.129-13.26a14.685,14.685,0,0,1,.18,2.7v11.52c0,1.74.63,1.98,4.92,1.98,2.85,0,4.02-.21,4.62-0.78,0.78-.75,1.14-2.55,1.35-6.39a4.717,4.717,0,0,1-1.59-.66v0.72c0,2.43-.3,4.59-0.72,5.07-0.42.45-1.41,0.6-3.96,0.6a10.808,10.808,0,0,1-2.52-.18,0.628,0.628,0,0,1-.51-0.75v-11.1a14.4,14.4,0,0,1,.18-2.73H817.4Zm8.76,0.45a39.821,39.821,0,0,0-7.2-4.68l-0.96,1.23a26.576,26.576,0,0,1,7.11,4.83Zm7.11,11.73a39.923,39.923,0,0,0-3.6-9.6l-1.47.6a29.616,29.616,0,0,1,3.45,9.66Zm11.971-14.07a14.922,14.922,0,0,1-2.16.18l0.24,1.8a32.326,32.326,0,0,1,4.23-.81l1.95-.3a49.831,49.831,0,0,1-3.36,9.78,29.511,29.511,0,0,1-3.15,5.37l1.68,1.02c0.99-1.74,1.62-2.91,1.89-3.45a54.9,54.9,0,0,0,4.649-12.87,15.3,15.3,0,0,1,2.13-.15c3.06,0,3.99,1.02,3.99,4.29a24.145,24.145,0,0,1-1.26,8.55,2.005,2.005,0,0,1-1.8,1.56,11.262,11.262,0,0,1-4.469-1.44l0.03,0.84a5.49,5.49,0,0,1-.06.96,11.288,11.288,0,0,0,4.5,1.26,3.015,3.015,0,0,0,2.79-1.38c1.2-1.74,1.95-5.64,1.95-10.17,0-2.46-.39-3.78-1.44-4.74a5.619,5.619,0,0,0-3.99-1.17c-0.72,0-1.23.03-2.07,0.09l0.24-1.29c0.27-1.47.45-2.43,0.51-2.91l0.21-1.14a7.6,7.6,0,0,1,.27-1.05l-2.01-.24v0.39a40.6,40.6,0,0,1-.9,6.39c-1.44.21-2.04,0.27-2.55,0.36Zm15.839-1.71a24.337,24.337,0,0,1,6.15,10.47l1.53-.96a26.964,26.964,0,0,0-6.3-10.32Zm4.83-6.87a22.371,22.371,0,0,1,2.91,4.62l1.32-.78a27.361,27.361,0,0,0-3.03-4.56Zm-3.24,1.53a23.683,23.683,0,0,1,3.03,4.77l1.32-.78a27.033,27.033,0,0,0-3.12-4.68Zm17.041,5.85a99.3,99.3,0,0,1,10.8-.99,53.7,53.7,0,0,0,6.57-.69v0.06a17.617,17.617,0,0,0-4.2,2.37c-2.85,2.25-4.59,5.4-4.59,8.34a7.133,7.133,0,0,0,1.44,4.41c1.41,1.86,3.84,3.18,7.08,3.84l1.86,0.39,0.3-1.98h-0.24a13.992,13.992,0,0,1-3.78-.75c-3.27-1.14-4.92-3.21-4.92-6.09,0-3.18,2.28-6.48,5.94-8.61a13.912,13.912,0,0,1,6.9-1.86l-0.18-1.8a23.656,23.656,0,0,1-3.6.33c-3.54.15-13.889,0.81-16.769,0.99-0.66.03-1.14,0.06-1.86,0.06H879.6Zm18.659,2.97a23.683,23.683,0,0,1,3.03,4.77l1.32-.78a27.033,27.033,0,0,0-3.12-4.68Zm3.24-1.53a22.371,22.371,0,0,1,2.91,4.62l1.32-.78a27.361,27.361,0,0,0-3.03-4.56Zm15.9-1.26a18.275,18.275,0,0,1,1.83-.09,64.076,64.076,0,0,0,8.129-.57c0.87,1.83.93,1.98,1.83,3.69a60.42,60.42,0,0,1-9.719.78,19.583,19.583,0,0,1-2.19-.09l0.03,1.65c0.57-.06.72-0.06,2.07-0.12a57.555,57.555,0,0,0,10.5-.9,28.343,28.343,0,0,0,3.09,4.5l0.39,0.39-0.09.06a18.056,18.056,0,0,0-6.09-.93,13.508,13.508,0,0,0-6.809,1.38,4.237,4.237,0,0,0-2.4,3.66,4.1,4.1,0,0,0,2.25,3.66,11.533,11.533,0,0,0,5.879,1.2,26.322,26.322,0,0,0,8.58-1.41,6.98,6.98,0,0,1,.87-0.27l-0.39-1.95a9.6,9.6,0,0,1-2.67,1.11,20.916,20.916,0,0,1-6.21.93c-4.2,0-6.539-1.17-6.539-3.27a2.836,2.836,0,0,1,1.68-2.46,13.235,13.235,0,0,1,5.669-1.14c3.42,0,5.7.45,7.32,1.41l1.5-1.05a36.243,36.243,0,0,1-4.44-6.09c1.38-.27,2.7-0.6,4.86-1.14,0.84-.24,1.02-0.27,1.53-0.39l-0.21-1.71a30.764,30.764,0,0,1-6.84,1.92c-0.63-1.17-1.32-2.55-1.83-3.66,1.68-.24,5.1-1.02,7.62-1.71l-0.15-1.65a35,35,0,0,1-8.01,2.04,25.71,25.71,0,0,1-1.65-4.38l-1.86.33a35.052,35.052,0,0,1,1.86,4.29,56.853,56.853,0,0,1-7.289.45,20.65,20.65,0,0,1-2.13-.09Zm38.64-2.85a10.664,10.664,0,0,1,1.65-.18c3.719-.12,8.279-0.36,9.179-0.48a1.243,1.243,0,0,1,.45-0.06v0.03c-0.15.15-.45,0.48-0.51,0.54-3.72,3.81-11.849,10.71-14.549,12.33l1.11,1.56a19.434,19.434,0,0,1,12.689-5.16c4.14,0,6.63,1.77,6.63,4.71,0,2.73-1.8,4.65-5.13,5.55a9.393,9.393,0,0,0-1.38-2.91,5.932,5.932,0,0,0-4.89-2.46c-2.46,0-4.139,1.41-4.139,3.45,0,2.52,2.4,4.02,6.479,4.02,6.54,0,10.83-3.03,10.83-7.65,0-3.72-3.21-6.15-8.16-6.15a14.446,14.446,0,0,0-7.71,2.07l-0.09-.12c0.39-.24,1.32-0.9,1.71-1.2,1.38-1.08,5.43-4.65,7.05-6.27,2.49-2.46,2.49-2.46,2.91-2.64l-1.08-1.41a3.328,3.328,0,0,1-1.35.3c-2.73.24-6.57,0.39-9.36,0.39a13.333,13.333,0,0,1-2.459-.15Zm9.869,19.26a10.67,10.67,0,0,1-2.37.24,7.829,7.829,0,0,1-3.51-.72,2.053,2.053,0,0,1-1.29-1.92c0-1.2.99-1.98,2.58-1.98C963.744,1082.95,965.3,1084.45,966.024,1087.33Zm-325.65,32.87h6c1.47,0,2.37.03,3.36,0.12v-1.89a20.828,20.828,0,0,1-3.39.18H633.205a20.828,20.828,0,0,1-3.39-.18v1.89c0.99-.09,1.89-0.12,3.36-0.12h5.4v13.59h-7.649a21.015,21.015,0,0,1-3.42-.18v1.92c1.02-.09,1.89-0.12,3.39-0.12h17.759c1.47,0,2.37.03,3.36,0.12v-1.92a20.61,20.61,0,0,1-3.39.18h-8.25V1120.2Zm25.321-1.44a34.178,34.178,0,0,1,7.049,5.82l1.26-1.47a37.709,37.709,0,0,0-7.109-5.64Zm0,19.41c0.45-.15.66-0.21,1.11-0.33,4.709-1.02,7.109-1.86,9.929-3.45,4.8-2.73,8.22-6.66,10.89-12.54a4.815,4.815,0,0,1-1.5-1.44,22.873,22.873,0,0,1-12.27,13.35,25.615,25.615,0,0,1-8.7,2.31Zm37.59-20.85a30.155,30.155,0,0,1,7.2,3.93l1.02-1.62a43.916,43.916,0,0,0-7.259-3.78Zm-2.37,7.14a32.875,32.875,0,0,1,7.529,4.05l0.96-1.62a47.071,47.071,0,0,0-7.529-3.87Zm17.759-9.57a23.683,23.683,0,0,1,3.03,4.77l1.32-.78a27.033,27.033,0,0,0-3.12-4.68ZM701.7,1138.83l1.17-.3,1.65-.33a33.416,33.416,0,0,0,7.379-2.52c5.28-2.61,8.91-6.66,11.52-12.87a6.668,6.668,0,0,1-1.53-1.32,22,22,0,0,1-3.66,6.75,20.2,20.2,0,0,1-9.06,6.72,25.853,25.853,0,0,1-7.919,1.83Zm20.219-25.47a22.371,22.371,0,0,1,2.91,4.62l1.32-.78a27.361,27.361,0,0,0-3.03-4.56Zm17.041,7.5a29.353,29.353,0,0,1,3.09-.12H753.5a29.353,29.353,0,0,1,3.09.12v-1.98a17.544,17.544,0,0,1-3.12.18h-11.4a17.544,17.544,0,0,1-3.12-.18v1.98Zm-3.03,14.25a26.131,26.131,0,0,1,3.36-.15h17.009a26.131,26.131,0,0,1,3.36.15v-2.07a20.61,20.61,0,0,1-3.39.18H739.315a20.828,20.828,0,0,1-3.39-.18v2.07Zm59.069-18.6c-0.48.18-.48,0.18-2.43,0.18H776.335a21.235,21.235,0,0,1-3.42-.18v1.92a26.641,26.641,0,0,1,3.39-.15h17.4a16.246,16.246,0,0,1-3.51,4.65,12.825,12.825,0,0,1-4.83,2.85,4.861,4.861,0,0,1,1.14,1.47,17.753,17.753,0,0,0,8.82-8.4,5.216,5.216,0,0,1,.69-1.14Zm-12.78,5.01a7.473,7.473,0,0,1,.12,1.56,29.816,29.816,0,0,1-.27,4.17,10.969,10.969,0,0,1-4.169,7.53,14.607,14.607,0,0,1-5.55,2.79,4.456,4.456,0,0,1,1.11,1.65,20.6,20.6,0,0,0,4.14-1.98,14.064,14.064,0,0,0,4.649-4.86c1.29-2.34,1.77-4.74,1.86-9.42a7.032,7.032,0,0,1,.12-1.44h-2.01Zm33.12-3.09a42.249,42.249,0,0,1-6.419-.33l-0.03,1.71a6.79,6.79,0,0,1,.75-0.03H810c1.11,0.03,4.05.09,4.589,0.09a3.267,3.267,0,0,0,.57-0.03l-0.12.18a1.3,1.3,0,0,0-.12.21c-2.039,3.72-4.709,7.17-6.869,8.82l1.38,1.41a9.894,9.894,0,0,1,2.25-2.4c2.46-2.07,4.889-3.21,6.839-3.21,1.47,0,2.28.81,2.52,2.58a24.291,24.291,0,0,0-4.5,2.43c-2.01,1.47-3,3-3,4.59,0,3,2.549,4.47,7.8,4.47a43.5,43.5,0,0,0,7.17-.63,8.692,8.692,0,0,1,1.14-.12l-0.27-1.92a25.465,25.465,0,0,1-8.04,1.14c-4.17,0-6.12-.96-6.12-3,0-1.89,1.71-3.42,5.97-5.4a8.453,8.453,0,0,1,.03.93,36.848,36.848,0,0,1-.21,4.53h1.71a5.165,5.165,0,0,1-.06-0.93c0-.24,0-0.84.03-1.47,0.03-.57.03-1.26,0.03-1.74a19.289,19.289,0,0,0-.06-1.95,47.393,47.393,0,0,1,8.07-2.7l-0.87-1.74a7.188,7.188,0,0,1-1.98.87c-1.32.45-3.66,1.35-5.4,2.04a3.61,3.61,0,0,0-3.9-3.36,8.152,8.152,0,0,0-4.649,1.56c-0.33.24-.33,0.24-1.5,1.17l-0.06-.06a22.088,22.088,0,0,0,4.5-6.3,83.465,83.465,0,0,0,9.81-.78c0.57-.09.75-0.12,1.2-0.18l-0.18-1.68a35.011,35.011,0,0,1-8.25,1.11c-1.65.09-1.65,0.09-1.92,0.12a16.7,16.7,0,0,0,.96-2.13,5.092,5.092,0,0,1,.81-1.65l-1.98-.42a13.566,13.566,0,0,1-1.5,4.2h-0.48Zm33.841-3.24a23.987,23.987,0,0,1-3.18-.15,19.808,19.808,0,0,1,.15,2.91v19.35a20.629,20.629,0,0,1-.18,3.06h1.83v-2.1H863.6v2.1h1.83a21.536,21.536,0,0,1-.18-3.12v-19.53a16.887,16.887,0,0,1,.15-2.67,21.507,21.507,0,0,1-3.09.15H849.175Zm-1.38,6.99v-5.49H863.6v5.49H847.8Zm0,1.44H863.6v5.64H847.8v-5.64Zm0,7.08H863.6v6.06H847.8v-6.06Zm35.28-11.16h-1.89a15.378,15.378,0,0,1-2.49-.18v1.68a16.829,16.829,0,0,1,2.49-.15h1.89v7.05a21.1,21.1,0,0,1-4.59,1.2l0.45,1.77a13.244,13.244,0,0,1,1.71-.63c1.17-.39,1.68-0.54,2.43-0.81v8.49c0,0.63-.24.81-1.05,0.81a15.4,15.4,0,0,1-3-.3,4.437,4.437,0,0,1,.36,1.62,19.531,19.531,0,0,0,2.25.12c2.34,0,3-.42,3-1.89v-9.39c1.65-.63,2.129-0.81,3.689-1.5l-0.06-1.41c-1.44.6-2.069,0.84-3.629,1.38v-6.51h1.14a20.957,20.957,0,0,1,2.489.15v-1.65a15.3,15.3,0,0,1-2.429.15h-1.2v-3.09a17.956,17.956,0,0,1,.21-2.97h-1.98a18.969,18.969,0,0,1,.21,3.03v3.03Zm8.129-3a18.876,18.876,0,0,1,.18-2.94h-1.89a20.3,20.3,0,0,1,.18,3v5.01c0,1.32.3,1.83,1.35,2.16a20.707,20.707,0,0,0,5.61.42c4.41,0,5.7-.12,6.51-0.66,0.84-.54,1.26-1.65,1.56-3.93a5.54,5.54,0,0,1-1.5-.78c-0.15,1.83-.36,2.79-0.78,3.24-0.51.57-1.62,0.72-5.79,0.72-4.83,0-5.43-.15-5.43-1.38v-2.25a48.209,48.209,0,0,0,12.45-3.12l-1.29-1.35c-1.74,1.2-6.06,2.4-11.16,3.12v-1.26Zm-1.5,21.03a18.757,18.757,0,0,1-.15,2.97h1.62v-1.77h10.32v1.74h1.65a17.185,17.185,0,0,1-.15-2.97v-8.37a15.193,15.193,0,0,1,.12-2.31,19.392,19.392,0,0,1-2.61.12h-8.31a19.678,19.678,0,0,1-2.61-.12,16.042,16.042,0,0,1,.12,2.28v8.43Zm1.47-9.27h10.32v3.72h-10.32v-3.72Zm0,5.01h10.32v4.11h-10.32v-4.11Zm28.831-18.12a12.694,12.694,0,0,1,.09,1.41c0,0.36,0,1.08-.03,2.01-0.27,10.05-.27,10.23-0.27,12.15,0,3.15.42,4.71,1.56,6.06,1.2,1.38,3,2.07,5.459,2.07a10.43,10.43,0,0,0,8.37-3.72c1.29-1.5,2.16-3.24,3.24-6.57a6.858,6.858,0,0,1-1.74-1.26,15.448,15.448,0,0,1-1.53,4.62,8.832,8.832,0,0,1-8.04,5.25c-2.25,0-3.81-.66-4.65-1.95-0.689-1.05-.9-2.19-0.9-4.86,0-1.98.21-9.9,0.3-11.76a21.148,21.148,0,0,1,.3-3.45h-2.16Zm31.95,5.64a95.754,95.754,0,0,1,10.8-1.02,43.769,43.769,0,0,0,6.57-.69v0.09a16.645,16.645,0,0,0-4.2,2.37c-2.85,2.25-4.59,5.4-4.59,8.31a7.072,7.072,0,0,0,1.44,4.41c1.41,1.89,3.84,3.21,7.08,3.87,1.38,0.27,1.38.27,1.86,0.39l0.3-1.98h-0.24a13.992,13.992,0,0,1-3.78-.75c-3.24-1.14-4.92-3.21-4.92-6.09,0-3.18,2.28-6.48,5.97-8.61a13.717,13.717,0,0,1,6.87-1.86l-0.18-1.83a18.945,18.945,0,0,1-3.6.36c-3.54.15-13.889,0.75-16.769,0.99-0.9.06-1.26,0.09-1.68,0.09-0.21,0-.48,0-1.05-0.03Zm37.11-3.48a5.323,5.323,0,0,1,.06.96c0.15,6.81.42,10.05,1.02,12.54,0.96,3.93,2.79,6.48,4.709,6.48,1.98,0,3.27-1.89,4.68-7.02a7.1,7.1,0,0,1-1.44-1.41,20.686,20.686,0,0,1-1.53,5.07c-0.48,1.02-.99,1.53-1.59,1.53a2.047,2.047,0,0,1-1.529-1.08,15.111,15.111,0,0,1-2.13-6.93c-0.21-1.92-.36-4.89-0.36-6.81a22.891,22.891,0,0,1,.18-3.3Zm15.2,2.43a26.223,26.223,0,0,1,6.24,14.49l1.71-.72a27.845,27.845,0,0,0-2.25-7.86,27.273,27.273,0,0,0-4.23-6.66Zm42.6,16.38a11.306,11.306,0,0,1-.99-0.66,26.355,26.355,0,0,0-8.4-4.44c-0.06-1.71-.06-2.16-0.15-4.86,2.22-.15,4.77-0.42,6.75-0.75,1.23-.18,1.26-0.18,1.68-0.21l-0.12-1.74c-1.56.57-4.11,0.96-8.34,1.29-0.06-2.91-.06-2.91-0.09-4.38a52.687,52.687,0,0,0,7.05-.72,19.2,19.2,0,0,1,2.01-.24l-0.15-1.71a39.506,39.506,0,0,1-8.91,1.23,33.957,33.957,0,0,1,.21-4.35h-1.95a31.31,31.31,0,0,1,.12,4.44c-1.05.06-1.65,0.06-2.52,0.06a36.493,36.493,0,0,1-7.74-.6l-0.03,1.68a2.451,2.451,0,0,1,.42-0.03,3.916,3.916,0,0,1,.51.03c1.98,0.18,5.07.33,7.17,0.33,0.72,0,1.26,0,2.22-.03,0,0.66,0,.66.03,4.38-1.05.03-1.92,0.06-2.67,0.06a33.44,33.44,0,0,1-6.87-.51l-0.03,1.65a0.746,0.746,0,0,1,.24-0.03c0.12,0,.39.03,0.72,0.06a49.514,49.514,0,0,0,5.1.24c1.08,0,2.28-.03,3.54-0.09,0.12,2.79.18,4.29,0.21,4.53a10.89,10.89,0,0,0-2.97-.36c-4.35,0-7.05,1.68-7.05,4.38,0,2.58,2.34,4.17,6.06,4.17,3.84,0,5.67-1.56,5.67-4.83a7.606,7.606,0,0,0-.09-1.53,1.436,1.436,0,0,0,.33.15c0.33,0.15.33,0.15,0.48,0.21a27.236,27.236,0,0,1,4.32,2.34,19.282,19.282,0,0,1,3.24,2.58Zm-10.98-3.87s0.03,0.99.03,1.29c0,1.5-.18,2.31-0.6,2.79a4.6,4.6,0,0,1-3.45,1.05c-2.67,0-4.35-1.02-4.35-2.64,0-1.74,2.04-2.88,5.16-2.88A9.927,9.927,0,0,1,1035.89,1132.29Zm23.46-11.34c1.98-.3,9.15-0.66,14.16-0.75,0.03,2.64.06,4.05,0.06,4.26h-0.03a4.406,4.406,0,0,0-3.51-1.44,4.864,4.864,0,0,0-5.19,4.83,4.556,4.556,0,0,0,4.77,4.65,4.711,4.711,0,0,0,3.81-1.68,3.779,3.779,0,0,0,.75-1.56l0.06,0.03a8.232,8.232,0,0,1-3.18,6.6,13.669,13.669,0,0,1-4.92,2.4,7.5,7.5,0,0,1,1.14,1.56,17.347,17.347,0,0,0,4.59-2.43,9.606,9.606,0,0,0,3.9-7.71,8.418,8.418,0,0,0-.66-3.45v-1.44c-0.03-1.65-.03-2.67-0.03-3.12v-1.5c2.37-.06,2.64-0.06,3.15-0.06a53.149,53.149,0,0,1,5.88.15v-1.77a22.091,22.091,0,0,1-3.21.15h-3.42c-1.29.03-1.29,0.03-2.4,0.03v-0.51l-0.03-.33a20.831,20.831,0,0,1,.18-3.36h-1.92a27.39,27.39,0,0,1,.18,4.26c-1.53,0-4.14.09-7.2,0.21-4.95.21-5.13,0.21-5.88,0.21-0.33,0-.57,0-1.11-0.03Zm14.07,6.24a3.552,3.552,0,0,1-3.69,3.78,3.1,3.1,0,0,1-3.24-3.21,3.384,3.384,0,0,1,3.51-3.33,4,4,0,0,1,2.13.51A2.287,2.287,0,0,1,1073.42,1127.19Z" transform="translate(-627.5 -1062.62)"/>
</svg>
