<svg xmlns="http://www.w3.org/2000/svg" width="755.652" height="50.375" viewBox="0 0 755.652 50.375">
  <defs>
    <style>
      .cls-1 {
        fill: #fefefe;
        fill-rule: evenodd;
      }
    </style>
  </defs>
  <path id="Seishirou_Sasabuchi" data-name="Seishirou Sasabuchi" class="cls-1" d="M333.35,310.617a12.8,12.8,0,0,0-6.445-1.523,13.365,13.365,0,0,0-9.61,3.633,11.972,11.972,0,0,0-3.808,9.082,11.5,11.5,0,0,0,1.933,6.826,24.3,24.3,0,0,0,7.119,5.742q2.226,1.318,3.677,2.373a13.119,13.119,0,0,1,2.183,1.9,5.814,5.814,0,0,1,1.464,4.014A6.942,6.942,0,0,1,327.857,348a7.815,7.815,0,0,1-5.552,1.875,8.939,8.939,0,0,1-5.186-1.377,15.212,15.212,0,0,1-4.072-5.039l-5.1,3.457a25.37,25.37,0,0,0,2.93,4.233,14.421,14.421,0,0,0,3.281,2.828,15.845,15.845,0,0,0,8.526,2.168,13.956,13.956,0,0,0,10.049-3.633,12.424,12.424,0,0,0,3.867-9.492,12.259,12.259,0,0,0-1.992-7.295q-1.964-2.754-7.793-6.153-1.964-1.172-3.267-2.138a13.183,13.183,0,0,1-1.978-1.729,5.791,5.791,0,0,1-1.347-3.838,6.088,6.088,0,0,1,1.963-4.629,6.943,6.943,0,0,1,4.951-1.845q4.131,0,7.324,4.687l4.483-4.277a19.821,19.821,0,0,0-5.6-5.186h0Zm49.34,33.164q0.087-1.581.088-2.285,0-6.738-3.6-10.752-3.544-3.984-9.7-3.984a13.819,13.819,0,0,0-10.518,4.424,15.538,15.538,0,0,0-4.189,11.074q0,6.329,3.808,10.107t10.225,3.78a14.742,14.742,0,0,0,6.738-1.377,15.428,15.428,0,0,0,5.186-4.746l-4.834-2.666a8.057,8.057,0,0,1-6.973,3.4,7.742,7.742,0,0,1-5.449-1.963,6.541,6.541,0,0,1-2.109-5.01H382.69Zm-20.977-5.215q1.728-6.385,7.442-6.386,6.035,0,7.06,6.386h-14.5Zm49.809-26.543a3.365,3.365,0,0,0-2.491-1.084A3.452,3.452,0,0,0,405.6,314.4a3.651,3.651,0,0,0,1.025,2.548,3.406,3.406,0,0,0,2.49,1.055,3.5,3.5,0,0,0,3.487-3.457,3.4,3.4,0,0,0-1.084-2.52h0Zm-7.412,15.645-3.4,27.6h6.475l3.4-27.6H404.11Zm34.822-.908a10.113,10.113,0,0,0-7,2.461,7.971,7.971,0,0,0-2.754,6.211,7.206,7.206,0,0,0,1.2,4.218,13.412,13.412,0,0,0,4.307,3.37q1.758,0.938,2.783,1.611a12.03,12.03,0,0,1,1.436,1.055,2.549,2.549,0,0,1,.849,1.992,2.886,2.886,0,0,1-1.011,2.285,3.937,3.937,0,0,1-2.68.879q-2.959,0-5.567-3.135l-4.248,2.959q3.984,5.48,10.049,5.479a10.853,10.853,0,0,0,7.236-2.344,7.939,7.939,0,0,0,2.725-6.3,6.905,6.905,0,0,0-1.348-4.424,15.86,15.86,0,0,0-4.98-3.808,16.056,16.056,0,0,1-3.428-2.286,2.743,2.743,0,0,1-.82-2.021,2.61,2.61,0,0,1,.981-2.066,3.691,3.691,0,0,1,2.476-.834q2.2,0,4.775,2.314l3.662-3.662a12.034,12.034,0,0,0-8.642-3.955h0Zm30.9-20.977-6.094,49.483h6.475L472,340.822q1.026-8.408,7.236-8.408,4.337,0,4.336,3.692a18.987,18.987,0,0,1-.175,2.431l-2.051,16.729h6.474l2.022-16.377q0.145-1.319.234-2.359t0.088-1.86a6.9,6.9,0,0,0-2.49-5.537,9.337,9.337,0,0,0-6.445-2.139,12.842,12.842,0,0,0-7.91,3.018l2.988-24.229h-6.475Zm49.688,6.24a3.365,3.365,0,0,0-2.491-1.084A3.452,3.452,0,0,0,513.6,314.4a3.651,3.651,0,0,0,1.025,2.548,3.406,3.406,0,0,0,2.49,1.055,3.5,3.5,0,0,0,3.487-3.457,3.4,3.4,0,0,0-1.084-2.52h0Zm-7.412,15.645-3.4,27.6h6.475l3.4-27.6H512.11Zm27.029,0-3.4,27.6h6.475l1.7-13.77a26.162,26.162,0,0,1,.718-3.926,9.389,9.389,0,0,1,1.143-2.68,4.366,4.366,0,0,1,1.626-1.524,4.664,4.664,0,0,1,2.168-.483,5.535,5.535,0,0,1,3.574,1.523l4.131-5.332a7.839,7.839,0,0,0-5.332-2.138q-3.341,0-6.621,3.105l0.292-2.373h-6.474Zm57.91,3.135a14.637,14.637,0,0,0-10.693-4.043,15.436,15.436,0,0,0-11.133,4.277A14.165,14.165,0,0,0,570.8,341.7a13.757,13.757,0,0,0,4.277,10.371,15.181,15.181,0,0,0,10.957,4.073,14.753,14.753,0,0,0,10.782-4.307,14.3,14.3,0,0,0,4.394-10.635,13.749,13.749,0,0,0-4.16-10.4h0Zm-4.863,17.168a8,8,0,0,1-6.27,2.783,8.152,8.152,0,0,1-6.211-2.549,9.1,9.1,0,0,1-2.4-6.592,9.463,9.463,0,0,1,2.549-6.767,8.536,8.536,0,0,1,6.445-2.666,8.044,8.044,0,0,1,6.065,2.4,8.516,8.516,0,0,1,2.314,6.3,10.166,10.166,0,0,1-2.49,7.09h0Zm47.267-20.3-2.021,16.377q-0.439,3.6-1.758,5.039a5.314,5.314,0,0,1-4.1,1.436q-5.127,0-5.126-4.366,0-.5.058-1.245t0.176-1.743l1.9-15.5H622.11l-1.817,14.912q-0.147,1.173-.22,2.08T620,346.242a8.867,8.867,0,0,0,3.047,7.061,12.1,12.1,0,0,0,8.145,2.607,13.587,13.587,0,0,0,8.642-2.578,8.743,8.743,0,0,0,2.754-3.486,17.832,17.832,0,0,0,.762-2.549,32.756,32.756,0,0,0,.586-3.574l1.963-16.055h-6.446Zm79.9-17.051a12.8,12.8,0,0,0-6.445-1.523,13.365,13.365,0,0,0-9.61,3.633,11.972,11.972,0,0,0-3.808,9.082,11.5,11.5,0,0,0,1.933,6.826,24.3,24.3,0,0,0,7.119,5.742q2.226,1.318,3.677,2.373a13.119,13.119,0,0,1,2.183,1.9,5.814,5.814,0,0,1,1.464,4.014A6.942,6.942,0,0,1,713.857,348a7.815,7.815,0,0,1-5.552,1.875,8.939,8.939,0,0,1-5.186-1.377,15.212,15.212,0,0,1-4.072-5.039l-5.1,3.457a25.37,25.37,0,0,0,2.93,4.233,14.421,14.421,0,0,0,3.281,2.828,15.845,15.845,0,0,0,8.526,2.168,13.956,13.956,0,0,0,10.049-3.633,12.424,12.424,0,0,0,3.867-9.492,12.259,12.259,0,0,0-1.992-7.295q-1.963-2.754-7.793-6.153-1.963-1.172-3.267-2.138a13.183,13.183,0,0,1-1.978-1.729,5.791,5.791,0,0,1-1.347-3.838,6.088,6.088,0,0,1,1.963-4.629,6.943,6.943,0,0,1,4.951-1.845q4.131,0,7.324,4.687l4.483-4.277a19.821,19.821,0,0,0-5.6-5.186h0Zm45.385,17.051L764.3,331.3a14.079,14.079,0,0,0-4.307-3.34,11.886,11.886,0,0,0-5.039-.967,13.346,13.346,0,0,0-10.283,4.365,16.034,16.034,0,0,0-3.955,11.192,13.593,13.593,0,0,0,3.457,9.638,11.642,11.642,0,0,0,8.936,3.721,13.014,13.014,0,0,0,8.613-3.633l-0.381,2.989h6.475l3.4-27.6h-6.474Zm-4.014,19.98a8.053,8.053,0,0,1-6.182,2.9,6.721,6.721,0,0,1-5.273-2.315,8.628,8.628,0,0,1-2.051-5.947,10.43,10.43,0,0,1,2.461-7.031,7.747,7.747,0,0,1,6.094-2.842,7.036,7.036,0,0,1,5.449,2.315,8.422,8.422,0,0,1,2.109,5.947,10.2,10.2,0,0,1-2.607,6.972h0Zm39.211-20.888a10.113,10.113,0,0,0-7,2.461,7.971,7.971,0,0,0-2.754,6.211,7.206,7.206,0,0,0,1.2,4.218,13.412,13.412,0,0,0,4.307,3.37q1.758,0.938,2.783,1.611a12.03,12.03,0,0,1,1.436,1.055,2.549,2.549,0,0,1,.849,1.992,2.886,2.886,0,0,1-1.011,2.285,3.937,3.937,0,0,1-2.68.879q-2.96,0-5.567-3.135l-4.248,2.959q3.984,5.48,10.049,5.479a10.853,10.853,0,0,0,7.236-2.344,7.939,7.939,0,0,0,2.725-6.3,6.905,6.905,0,0,0-1.348-4.424,15.86,15.86,0,0,0-4.98-3.808,16.056,16.056,0,0,1-3.428-2.286,2.743,2.743,0,0,1-.82-2.021,2.61,2.61,0,0,1,.981-2.066,3.691,3.691,0,0,1,2.476-.834q2.2,0,4.775,2.314l3.662-3.662a12.034,12.034,0,0,0-8.642-3.955h0Zm48.8,0.908L848.3,331.3a14.079,14.079,0,0,0-4.307-3.34,11.886,11.886,0,0,0-5.039-.967,13.346,13.346,0,0,0-10.283,4.365,16.034,16.034,0,0,0-3.955,11.192,13.593,13.593,0,0,0,3.457,9.638,11.642,11.642,0,0,0,8.936,3.721,13.014,13.014,0,0,0,8.613-3.633l-0.381,2.989h6.475l3.4-27.6h-6.474Zm-4.014,19.98a8.053,8.053,0,0,1-6.182,2.9,6.721,6.721,0,0,1-5.273-2.315,8.633,8.633,0,0,1-2.051-5.947,10.43,10.43,0,0,1,2.461-7.031,7.747,7.747,0,0,1,6.094-2.842,7.036,7.036,0,0,1,5.449,2.315,8.422,8.422,0,0,1,2.109,5.947,10.2,10.2,0,0,1-2.607,6.972h0Zm34.113-41.865-6.094,49.483h6.475l0.469-3.692a13.316,13.316,0,0,0,9.844,4.336,13.59,13.59,0,0,0,10.224-4.394,15.078,15.078,0,0,0,4.16-10.869,13.6,13.6,0,0,0-3.662-9.786,12.24,12.24,0,0,0-9.287-3.867,13.006,13.006,0,0,0-4.248.674,17.107,17.107,0,0,0-4.424,2.549l3.018-24.434h-6.475Zm15.938,41.895a8.249,8.249,0,0,1-6.358,2.842,7.271,7.271,0,0,1-5.566-2.286,8.142,8.142,0,0,1-2.139-5.888,10.208,10.208,0,0,1,2.49-7.119,8.05,8.05,0,0,1,6.3-2.813,7.475,7.475,0,0,1,5.713,2.344,8.469,8.469,0,0,1,2.2,6.035,9.756,9.756,0,0,1-2.636,6.885h0Zm47.681-20.01-2.021,16.377q-0.439,3.6-1.758,5.039a5.314,5.314,0,0,1-4.1,1.436q-5.127,0-5.126-4.366,0-.5.058-1.245t0.176-1.743l1.9-15.5H925.11l-1.817,14.912q-0.147,1.173-.22,2.08T923,346.242a8.867,8.867,0,0,0,3.047,7.061,12.1,12.1,0,0,0,8.145,2.607,13.587,13.587,0,0,0,8.642-2.578,8.743,8.743,0,0,0,2.754-3.486,17.832,17.832,0,0,0,.762-2.549,32.756,32.756,0,0,0,.586-3.574l1.963-16.055h-6.446Zm38.555-.908a13.418,13.418,0,0,0-10.2,4.365,15.181,15.181,0,0,0-4.073,10.811,14.225,14.225,0,0,0,3.78,10.253,13.092,13.092,0,0,0,9.873,3.956,19.007,19.007,0,0,0,7.148-1.524l0.85-6.826a11.425,11.425,0,0,1-7.09,2.959,7.588,7.588,0,0,1-5.83-2.432,9.06,9.06,0,0,1-2.227-6.416,10.277,10.277,0,0,1,2.373-7,7.684,7.684,0,0,1,6.065-2.724,7.976,7.976,0,0,1,4.219,1.084,15.246,15.246,0,0,1,3.808,3.662l0.821-6.592a15.189,15.189,0,0,0-9.522-3.574h0Zm31.822-20.977-6.09,49.483h6.48l1.78-14.444q1.035-8.408,7.24-8.408,4.335,0,4.33,3.692a18.388,18.388,0,0,1-.17,2.431l-2.05,16.729h6.47l2.02-16.377q0.15-1.319.24-2.359t0.09-1.86a6.9,6.9,0,0,0-2.49-5.537,9.355,9.355,0,0,0-6.45-2.139,12.839,12.839,0,0,0-7.91,3.018l2.99-24.229h-6.48Zm49.69,6.24a3.353,3.353,0,0,0-2.49-1.084,3.459,3.459,0,0,0-3.43,3.458,3.674,3.674,0,0,0,1.03,2.548,3.4,3.4,0,0,0,2.49,1.055,3.509,3.509,0,0,0,3.49-3.457,3.412,3.412,0,0,0-1.09-2.52h0Zm-7.41,15.645-3.4,27.6h6.48l3.39-27.6h-6.47Z" transform="translate(-307.938 -305.781)"/>
</svg>
