<svg id="logo.svg" xmlns="http://www.w3.org/2000/svg" width="248" height="249" viewBox="0 0 248 249">
  <defs>
    <style>
      .cls-1 {
        fill: #fff;
      }

      .cls-1, .cls-2 {
        fill-rule: evenodd;
      }

      .cls-2 {
        fill: #f5a418;
        stroke: #fff;
        stroke-linejoin: round;
        stroke-width: 2px;
      }
    </style>
  </defs>
  <path id="長方形_4_のコピー_3" data-name="長方形 4 のコピー 3" class="cls-1" d="M85.918,58.675L58.58,85.984l49.793,49.741,16.6-16.581,69.32,69.247L133.758,248.86l-69.32-69.247,14.645-14.629L0,85.984,85.918,0.157l68.343,68.271-29.29,29.259Z"/>
  <path id="長方形_2" data-name="長方形 2" class="cls-2" d="M54.675,188.367l42.959-42.914,16.6,16.58L71.273,204.947Z"/>
  <path id="長方形_2_のコピー_9" data-name="長方形 2 のコピー 9" class="cls-2" d="M186.48,145.478l16.6,16.58-19.527,19.506-43.935-43.889-17.574,17.556-16.6-16.58,37.1-37.062,14.645,14.63,32.219-32.186L164.024,58.675,125.947,96.712,96.657,67.453l67.367-67.3,83.965,83.876Z"/>
  <path id="長方形_2_のコピー" data-name="長方形 2 のコピー" class="cls-2" d="M69.32,203l42.959-42.913,16.6,16.58L85.918,219.576Z"/>
  <path id="長方形_2_のコピー_3" data-name="長方形 2 のコピー 3" class="cls-2" d="M83.965,217.626l42.959-42.914,16.6,16.58-42.958,42.914Z"/>
  <path id="長方形_2_のコピー_4" data-name="長方形 2 のコピー 4" class="cls-2" d="M98.61,232.255l42.959-42.913,16.6,16.58-42.958,42.914Z"/>
</svg>
