<svg xmlns="http://www.w3.org/2000/svg" width="10.625" height="280.781" viewBox="0 0 10.625 280.781">
  <defs>
    <style>
      .cls-1 {
        fill: #cbcbcb;
        fill-rule: evenodd;
      }
    </style>
  </defs>
  <path id="Welcome_to_Joint_Core_" data-name="Welcome to Joint Core " class="cls-1" d="M45.764,517.661v1.064l8.736,2.338v0.028l-8.736,2.17v0.952l10.08-2.6v-1.05l-8.9-2.338v-0.028l8.9-2.338V514.8l-10.08-2.646v0.98l8.736,2.2v0.028Zm5.95-14.224a3.766,3.766,0,0,1-.98-0.238,2.8,2.8,0,0,1-.812-0.483,2.271,2.271,0,0,1-.56-0.728,2.212,2.212,0,0,1-.21-0.987,2.323,2.323,0,0,1,.2-0.994,2.067,2.067,0,0,1,.546-0.721,2.347,2.347,0,0,1,.812-0.434,3.33,3.33,0,0,1,1-.147v4.732Zm0.7-5.628a4.525,4.525,0,0,0-2.989.84A2.89,2.89,0,0,0,48.4,501a3.149,3.149,0,0,0,.3,1.4,3.059,3.059,0,0,0,.826,1.043,3.809,3.809,0,0,0,1.225.658,4.752,4.752,0,0,0,1.5.231,5.445,5.445,0,0,0,1.491-.2,3.4,3.4,0,0,0,1.2-.6,2.826,2.826,0,0,0,.8-1.036,3.515,3.515,0,0,0,.294-1.5,3.633,3.633,0,0,0-.182-1.2,2.723,2.723,0,0,0-.511-0.9,2.957,2.957,0,0,0-.77-0.63,4.539,4.539,0,0,0-.959-0.406V498.8a2.091,2.091,0,0,1,1.232.784A2.314,2.314,0,0,1,55.284,501a2.35,2.35,0,0,1-.231,1.064,2.2,2.2,0,0,1-.616.763,2.688,2.688,0,0,1-.91.455,3.923,3.923,0,0,1-1.113.154v-5.628Zm3.43-9.6H45.764v0.84h10.08v-0.84Zm-4.97-15.134a2.8,2.8,0,0,0-1.876.973,3.235,3.235,0,0,0-.6,2.037,3.138,3.138,0,0,0,.315,1.435,3.086,3.086,0,0,0,.847,1.043,3.786,3.786,0,0,0,1.225.637,4.81,4.81,0,0,0,1.449.217,5.521,5.521,0,0,0,1.5-.2,3.39,3.39,0,0,0,1.211-.6,2.826,2.826,0,0,0,.8-1.036,3.927,3.927,0,0,0,.1-2.716,2.707,2.707,0,0,0-.553-0.917,2.888,2.888,0,0,0-.854-0.63,4.24,4.24,0,0,0-1.1-.357v0.9a2.41,2.41,0,0,1,1.428.721,2.145,2.145,0,0,1,.518,1.5,2.256,2.256,0,0,1-.259,1.12,2.2,2.2,0,0,1-.693.756,3,3,0,0,1-.98.427,4.7,4.7,0,0,1-1.12.133,4.536,4.536,0,0,1-1.113-.14,3.178,3.178,0,0,1-.994-0.434,2.239,2.239,0,0,1-.707-0.756,2.183,2.183,0,0,1-.266-1.106,2.093,2.093,0,0,1,.455-1.386,2.438,2.438,0,0,1,1.267-.77v-0.854Zm4.893-13.055a2.993,2.993,0,0,0-.777-1.064,3.534,3.534,0,0,0-1.2-.679,4.842,4.842,0,0,0-1.568-.238,5.368,5.368,0,0,0-1.5.2,3.348,3.348,0,0,0-1.211.623,3.029,3.029,0,0,0-.812,1.05,3.412,3.412,0,0,0-.3,1.484,3.376,3.376,0,0,0,.3,1.47,2.993,2.993,0,0,0,.819,1.05,3.521,3.521,0,0,0,1.211.63,5.117,5.117,0,0,0,1.491.21,4.77,4.77,0,0,0,1.666-.266,3.426,3.426,0,0,0,1.19-.721,2.927,2.927,0,0,0,.714-1.064,3.776,3.776,0,0,0,.252-1.309A3.4,3.4,0,0,0,55.767,460.016Zm-2.415-.945a3.1,3.1,0,0,1,.98.434,2.176,2.176,0,0,1,.693.763,2.3,2.3,0,0,1,.259,1.127,2.41,2.41,0,0,1-.224,1.064,2.1,2.1,0,0,1-.63.77,2.9,2.9,0,0,1-.973.469,4.536,4.536,0,0,1-1.239.161,4.648,4.648,0,0,1-1.141-.14,3.011,3.011,0,0,1-.98-0.434,2.2,2.2,0,0,1-.686-0.763,2.3,2.3,0,0,1-.259-1.127,2.456,2.456,0,0,1,.238-1.134,2.087,2.087,0,0,1,.651-0.756,2.848,2.848,0,0,1,.973-0.434,4.971,4.971,0,0,1,1.2-.14A4.563,4.563,0,0,1,53.352,459.071Zm-1.414-10.3q-0.224,0-.49-0.021a4.241,4.241,0,0,1-.532-0.077,3.511,3.511,0,0,1-.511-0.147,1.643,1.643,0,0,1-.427-0.231,2.028,2.028,0,0,1-.826-1.638,1.433,1.433,0,0,1,.448-1.225,2.046,2.046,0,0,1,1.232-.329h5.012v-0.84H51.938q-0.224,0-.49-0.021a4.241,4.241,0,0,1-.532-0.077,3.511,3.511,0,0,1-.511-0.147,1.643,1.643,0,0,1-.427-0.231,2.028,2.028,0,0,1-.826-1.638,1.433,1.433,0,0,1,.448-1.225,2.046,2.046,0,0,1,1.232-.329h5.012v-0.84H51.266a7.275,7.275,0,0,0-1.064.077,2.472,2.472,0,0,0-.917.315,1.775,1.775,0,0,0-.644.679,2.439,2.439,0,0,0-.245,1.183,2.789,2.789,0,0,0,.343,1.393,2.445,2.445,0,0,0,1.057.973,3.026,3.026,0,0,0-.546.273,1.733,1.733,0,0,0-.441.406,1.928,1.928,0,0,0-.3.595,2.829,2.829,0,0,0-.112.854,2.7,2.7,0,0,0,.329,1.316,2.215,2.215,0,0,0,.959.924v0.028H48.592v0.84h7.252v-0.84H51.938Zm-0.224-18.452a3.727,3.727,0,0,1-.98-0.238,2.8,2.8,0,0,1-.812-0.483,2.271,2.271,0,0,1-.56-0.728,2.209,2.209,0,0,1-.21-0.987,2.323,2.323,0,0,1,.2-0.994,2.067,2.067,0,0,1,.546-0.721,2.347,2.347,0,0,1,.812-0.434,3.33,3.33,0,0,1,1-.147v4.732Zm0.7-5.628a4.525,4.525,0,0,0-2.989.84,2.892,2.892,0,0,0-1.029,2.352,3.149,3.149,0,0,0,.3,1.4,3.059,3.059,0,0,0,.826,1.043,3.809,3.809,0,0,0,1.225.658,4.752,4.752,0,0,0,1.5.231,5.445,5.445,0,0,0,1.491-.2,3.4,3.4,0,0,0,1.2-.6,2.818,2.818,0,0,0,.8-1.036,3.515,3.515,0,0,0,.294-1.5,3.633,3.633,0,0,0-.182-1.2,2.723,2.723,0,0,0-.511-0.9,2.957,2.957,0,0,0-.77-0.63,4.539,4.539,0,0,0-.959-0.406v0.938a2.091,2.091,0,0,1,1.232.784,2.314,2.314,0,0,1,.434,1.414,2.347,2.347,0,0,1-.231,1.064,2.2,2.2,0,0,1-.616.763,2.67,2.67,0,0,1-.91.455,3.923,3.923,0,0,1-1.113.154v-5.628Zm2.772-22.078c0.028,0.112.051,0.227,0.07,0.343a2.157,2.157,0,0,1,.028.343,1.2,1.2,0,0,1-.056.413,0.4,0.4,0,0,1-.182.217,0.764,0.764,0,0,1-.322.084c-0.131.01-.285,0.014-0.462,0.014h-4.97v-1.358h-0.7v1.358H46.576v0.84h2.016v1.022h0.7v-1.022H54.6a1.531,1.531,0,0,0,1.127-.329,1.334,1.334,0,0,0,.315-0.959,2.1,2.1,0,0,0-.07-0.56c-0.047-.168-0.079-0.3-0.1-0.406H55.186ZM55.767,390a2.993,2.993,0,0,0-.777-1.064,3.534,3.534,0,0,0-1.2-.679,4.869,4.869,0,0,0-1.568-.238,5.368,5.368,0,0,0-1.5.2,3.364,3.364,0,0,0-1.211.623,3.029,3.029,0,0,0-.812,1.05,3.412,3.412,0,0,0-.3,1.484,3.376,3.376,0,0,0,.3,1.47,2.993,2.993,0,0,0,.819,1.05,3.521,3.521,0,0,0,1.211.63,5.117,5.117,0,0,0,1.491.21,4.747,4.747,0,0,0,1.666-.266,3.411,3.411,0,0,0,1.19-.721,2.927,2.927,0,0,0,.714-1.064,3.776,3.776,0,0,0,.252-1.309A3.4,3.4,0,0,0,55.767,390Zm-2.415-.945a3.121,3.121,0,0,1,.98.434,2.184,2.184,0,0,1,.693.763,2.3,2.3,0,0,1,.259,1.127,2.41,2.41,0,0,1-.224,1.064,2.1,2.1,0,0,1-.63.77,2.885,2.885,0,0,1-.973.469,4.5,4.5,0,0,1-1.239.161,4.6,4.6,0,0,1-1.141-.14,3.011,3.011,0,0,1-.98-0.434,2.2,2.2,0,0,1-.686-0.763,2.3,2.3,0,0,1-.259-1.127,2.456,2.456,0,0,1,.238-1.134,2.087,2.087,0,0,1,.651-0.756,2.867,2.867,0,0,1,.973-0.434,4.971,4.971,0,0,1,1.2-.14A4.563,4.563,0,0,1,53.352,389.057Zm-0.7-19.768a8.244,8.244,0,0,0,1.3-.1,3.06,3.06,0,0,0,1.106-.385,2.089,2.089,0,0,0,.77-0.805,2.826,2.826,0,0,0,.287-1.372,2.734,2.734,0,0,0-.777-2.156,3.3,3.3,0,0,0-2.247-.686H45.764v0.952h7.294a2.781,2.781,0,0,1,1.624.4,1.578,1.578,0,0,1,.56,1.379,1.99,1.99,0,0,1-.224,1.029,1.359,1.359,0,0,1-.595.546,2.338,2.338,0,0,1-.833.21c-0.308.024-.621,0.035-0.938,0.035v0.952Zm3.115-18.963a2.993,2.993,0,0,0-.777-1.064,3.534,3.534,0,0,0-1.2-.679,4.869,4.869,0,0,0-1.568-.238,5.368,5.368,0,0,0-1.5.2,3.364,3.364,0,0,0-1.211.623,3.029,3.029,0,0,0-.812,1.05,3.412,3.412,0,0,0-.3,1.484,3.376,3.376,0,0,0,.3,1.47,2.993,2.993,0,0,0,.819,1.05,3.521,3.521,0,0,0,1.211.63,5.117,5.117,0,0,0,1.491.21,4.747,4.747,0,0,0,1.666-.266,3.411,3.411,0,0,0,1.19-.721,2.927,2.927,0,0,0,.714-1.064,3.776,3.776,0,0,0,.252-1.309A3.4,3.4,0,0,0,55.767,350.326Zm-2.415-.945a3.121,3.121,0,0,1,.98.434,2.184,2.184,0,0,1,.693.763,2.3,2.3,0,0,1,.259,1.127,2.407,2.407,0,0,1-.224,1.064,2.1,2.1,0,0,1-.63.77,2.885,2.885,0,0,1-.973.469,4.5,4.5,0,0,1-1.239.161,4.6,4.6,0,0,1-1.141-.14,3.011,3.011,0,0,1-.98-0.434,2.2,2.2,0,0,1-.686-0.763,2.3,2.3,0,0,1-.259-1.127,2.456,2.456,0,0,1,.238-1.134,2.087,2.087,0,0,1,.651-0.756,2.867,2.867,0,0,1,.973-0.434,4.971,4.971,0,0,1,1.2-.14A4.563,4.563,0,0,1,53.352,349.381Zm2.492-10.542H48.592v0.84h7.252v-0.84ZM47.01,338.8H45.764v0.924H47.01V338.8Zm4.928-9.94q-0.378,0-.7-0.028a2.643,2.643,0,0,1-.672-0.154,2.049,2.049,0,0,1-.532-0.28,2.1,2.1,0,0,1-.448-0.441,2.234,2.234,0,0,1-.315-0.581,2.044,2.044,0,0,1-.119-0.714,1.844,1.844,0,0,1,.49-1.442,2.163,2.163,0,0,1,1.47-.434h4.732v-0.84H51.1a7.456,7.456,0,0,0-.861.049,1.814,1.814,0,0,0-.8.315,2.133,2.133,0,0,0-.8.966,3.308,3.308,0,0,0-.231,1.246,2.4,2.4,0,0,0,.336,1.3,5.318,5.318,0,0,0,.868,1.043H48.592v0.84h7.252v-0.84H51.938Zm3.248-16.492c0.028,0.112.051,0.227,0.07,0.343a2.157,2.157,0,0,1,.028.343,1.2,1.2,0,0,1-.056.413,0.4,0.4,0,0,1-.182.217,0.764,0.764,0,0,1-.322.084c-0.131.01-.285,0.014-0.462,0.014h-4.97v-1.358h-0.7v1.358H46.576v0.84h2.016v1.022h0.7v-1.022H54.6a1.531,1.531,0,0,0,1.127-.329,1.334,1.334,0,0,0,.315-0.959,2.1,2.1,0,0,0-.07-0.56c-0.047-.168-0.079-0.3-0.1-0.406H55.186Zm-6.5-27.5a4.218,4.218,0,0,0-1.379.455,3.326,3.326,0,0,0-1,.84,3.532,3.532,0,0,0-.609,1.176,4.9,4.9,0,0,0-.2,1.435,5.815,5.815,0,0,0,.287,1.862,3.726,3.726,0,0,0,.924,1.484,4.375,4.375,0,0,0,1.645.987,7.381,7.381,0,0,0,2.45.357,8.414,8.414,0,0,0,2.037-.238,4.833,4.833,0,0,0,1.687-.763,3.771,3.771,0,0,0,1.155-1.351,4.281,4.281,0,0,0,.427-1.988,4.906,4.906,0,0,0-.287-1.757,3.872,3.872,0,0,0-.777-1.274,3.936,3.936,0,0,0-1.141-.847,6.321,6.321,0,0,0-1.379-.49v0.994a4.43,4.43,0,0,1,1.106.413,3.383,3.383,0,0,1,.875.672,2.941,2.941,0,0,1,.581.931,3.179,3.179,0,0,1,.21,1.176,3.429,3.429,0,0,1-.392,1.722,3.072,3.072,0,0,1-1.029,1.092,4.369,4.369,0,0,1-1.449.581,7.8,7.8,0,0,1-1.652.175,6.9,6.9,0,0,1-1.7-.2,4.314,4.314,0,0,1-1.421-.63,3.065,3.065,0,0,1-1.344-2.653,3.626,3.626,0,0,1,.546-2.086,2.884,2.884,0,0,1,1.834-1.092v-0.98Zm7.077-13.111a2.993,2.993,0,0,0-.777-1.064,3.534,3.534,0,0,0-1.2-.679,4.869,4.869,0,0,0-1.568-.238,5.368,5.368,0,0,0-1.5.2,3.364,3.364,0,0,0-1.211.623,3.029,3.029,0,0,0-.812,1.05,3.412,3.412,0,0,0-.3,1.484,3.376,3.376,0,0,0,.3,1.47,2.993,2.993,0,0,0,.819,1.05,3.521,3.521,0,0,0,1.211.63,5.117,5.117,0,0,0,1.491.21,4.747,4.747,0,0,0,1.666-.266,3.411,3.411,0,0,0,1.19-.721,2.927,2.927,0,0,0,.714-1.064,3.776,3.776,0,0,0,.252-1.309A3.4,3.4,0,0,0,55.767,271.758Zm-2.415-.945a3.121,3.121,0,0,1,.98.434,2.184,2.184,0,0,1,.693.763,2.3,2.3,0,0,1,.259,1.127,2.407,2.407,0,0,1-.224,1.064,2.1,2.1,0,0,1-.63.77,2.885,2.885,0,0,1-.973.469,4.5,4.5,0,0,1-1.239.161,4.6,4.6,0,0,1-1.141-.14,3.011,3.011,0,0,1-.98-0.434,2.2,2.2,0,0,1-.686-0.763,2.3,2.3,0,0,1-.259-1.127A2.456,2.456,0,0,1,49.39,272a2.087,2.087,0,0,1,.651-0.756,2.867,2.867,0,0,1,.973-0.434,4.971,4.971,0,0,1,1.2-.14A4.563,4.563,0,0,1,53.352,270.813Zm-1.064-10.458a6.184,6.184,0,0,1-1.155-.105,2.552,2.552,0,0,1-.959-0.378,1.936,1.936,0,0,1-.644-0.735,2.454,2.454,0,0,1-.224-1.176H48.4a2.747,2.747,0,0,0,.343,1.463,2.428,2.428,0,0,0,1.211.9v0.028H48.592v0.84h7.252v-0.84H52.288Zm-0.574-11.3a3.727,3.727,0,0,1-.98-0.238,2.8,2.8,0,0,1-.812-0.483,2.26,2.26,0,0,1-.56-0.728,2.206,2.206,0,0,1-.21-0.987,2.326,2.326,0,0,1,.2-0.994,2.076,2.076,0,0,1,.546-0.721,2.347,2.347,0,0,1,.812-0.434,3.33,3.33,0,0,1,1-.147v4.732Zm0.7-5.628a4.525,4.525,0,0,0-2.989.84,2.893,2.893,0,0,0-1.029,2.352,3.146,3.146,0,0,0,.3,1.4,3.05,3.05,0,0,0,.826,1.043,3.809,3.809,0,0,0,1.225.658,4.752,4.752,0,0,0,1.5.231,5.445,5.445,0,0,0,1.491-.2,3.38,3.38,0,0,0,1.2-.6,2.818,2.818,0,0,0,.8-1.036,3.515,3.515,0,0,0,.294-1.5,3.637,3.637,0,0,0-.182-1.2,2.723,2.723,0,0,0-.511-0.9,2.957,2.957,0,0,0-.77-0.63,4.539,4.539,0,0,0-.959-0.406v0.938a2.091,2.091,0,0,1,1.232.784,2.316,2.316,0,0,1,.434,1.414,2.347,2.347,0,0,1-.231,1.064,2.2,2.2,0,0,1-.616.763,2.67,2.67,0,0,1-.91.455,3.923,3.923,0,0,1-1.113.154v-5.628Z" transform="translate(-45.5 -243.438)"/>
</svg>
