<svg xmlns="http://www.w3.org/2000/svg" width="465.156" height="41.656" viewBox="0 0 465.156 41.656">
  <defs>
    <style>
      .cls-1 {
        fill: #ffa800;
        fill-rule: evenodd;
      }
    </style>
  </defs>
  <path id="Web_Enginner_Designer" data-name="Web Enginner/Designer" class="cls-1" d="M435.377,453.266h3.262l2.207-13.028q0.039-.137.117-0.7t0.215-1.562l0.41-2.891q0.019-.156.088-0.869t0.166-2c0.013-.143.032-0.325,0.059-0.547s0.051-.481.078-0.781l0.1,1.25q0.1,1.074.186,1.777t0.127,1.055l0.41,3.008q0.156,1.054.234,1.621c0.052,0.378.085,0.592,0.1,0.644l2.129,13.028h3.164l5.332-30.157h-3.887l-1.738,11.8-0.293,2.012q-0.273,2.07-.517,4.219t-0.44,4.453q-0.195-2.187-.5-4.59t-0.752-5.215L443.6,423.109h-3.125l-2.168,13.047q-0.313,1.817-.576,3.965t-0.5,4.707l-0.1.977c-0.026-.261-0.046-0.475-0.059-0.645a3.448,3.448,0,0,0-.039-0.351l-0.215-2.559q-0.117-1.386-.351-3.066l-0.332-2.071-2.051-14h-3.926Zm34.305-2.891q-2.578,0-2.578-6.484h8.535v-0.469q0-10.7-6.074-10.7a4.972,4.972,0,0,0-4.619,2.578q-1.5,2.578-1.5,7.93a25.9,25.9,0,0,0,.362,4.648,9.662,9.662,0,0,0,1.123,3.223,4.873,4.873,0,0,0,1.924,1.875,5.958,5.958,0,0,0,2.783.6q5.45,0,5.859-7.129h-3.476q0,3.925-2.344,3.926h0ZM467.1,441.2a13.647,13.647,0,0,1,.722-4.179,1.681,1.681,0,0,1,1.641-1.114,1.7,1.7,0,0,1,1.641,1.114,13.647,13.647,0,0,1,.722,4.179H467.1Zm20.109,12.071h3.731v-2.6a6.458,6.458,0,0,0,1.6,2.285,3.363,3.363,0,0,0,2.129.625,3.856,3.856,0,0,0,3.672-2.568q1.172-2.568,1.172-8.076a31.156,31.156,0,0,0-.293-4.59,11.467,11.467,0,0,0-.889-3.184,4.3,4.3,0,0,0-1.533-1.846,4.064,4.064,0,0,0-2.227-.6,3.3,3.3,0,0,0-2.031.586,4.087,4.087,0,0,0-.8.781,7.712,7.712,0,0,0-.8,1.25V420.082h-3.731v33.184Zm7.891-4.61a1.986,1.986,0,0,1-1.895,1.563,1.913,1.913,0,0,1-1.816-1.582,28.588,28.588,0,0,1,0-10.938,1.919,1.919,0,0,1,1.816-1.6,1.95,1.95,0,0,1,1.895,1.582,18.694,18.694,0,0,1,.547,5.586,17.625,17.625,0,0,1-.547,5.39h0Zm32.324,4.61h10.8v-3.438H531.49V439.535h5.977V436.1H531.49v-9.551h6.739v-3.438h-10.8v30.157Zm22.785,0h3.731V440.2a12.837,12.837,0,0,1,.127-1.972,3.994,3.994,0,0,1,.4-1.3,1.7,1.7,0,0,1,.713-0.723,2.373,2.373,0,0,1,1.084-.224,1.769,1.769,0,0,1,1.679.859,6.277,6.277,0,0,1,.489,2.91l0.019,13.516h3.731V438.891a10.209,10.209,0,0,0-.586-4.239,3.686,3.686,0,0,0-3.516-1.933,4.737,4.737,0,0,0-4.14,2.656v-2.324h-3.731v20.215Zm31.832-17.793a7.138,7.138,0,0,0-1.64-2.149,3.229,3.229,0,0,0-2.032-.605,3.873,3.873,0,0,0-3.769,2.519q-1.154,2.637-1.153,8.184,0,5.235,1.2,7.695a3.936,3.936,0,0,0,3.74,2.461q2.46,0,3.652-2.773v3.886a6.59,6.59,0,0,1-.488,3.106,1.867,1.867,0,0,1-1.777.82q-2.4,0-2.4-3.222h-3.613l-0.02.625a5.675,5.675,0,0,0,1.563,4.2,5.756,5.756,0,0,0,4.258,1.543q4.12,0,5.488-2.656a12.572,12.572,0,0,0,.742-5.2V433.051h-3.75v2.422Zm-0.43,13.261a1.822,1.822,0,0,1-1.777,1.485,2.064,2.064,0,0,1-1.953-1.66,20.2,20.2,0,0,1-.566-5.606,17.965,17.965,0,0,1,.546-5.224q0.548-1.63,1.739-1.631,2.5,0,2.5,7.246a19.209,19.209,0,0,1-.489,5.39h0Zm16.6,4.532h3.75V433.051h-3.75v20.215ZM598.155,425.2a2.4,2.4,0,0,0-.743,1.758,2.53,2.53,0,1,0,5.059.02,2.534,2.534,0,0,0-2.5-2.52,2.6,2.6,0,0,0-1.816.742h0Zm16.058,28.067h3.731V440.2a12.837,12.837,0,0,1,.127-1.972,3.994,3.994,0,0,1,.4-1.3,1.7,1.7,0,0,1,.713-0.723,2.373,2.373,0,0,1,1.084-.224,1.769,1.769,0,0,1,1.679.859,6.277,6.277,0,0,1,.489,2.91l0.019,13.516h3.731V438.891a10.209,10.209,0,0,0-.586-4.239,3.686,3.686,0,0,0-3.516-1.933,4.737,4.737,0,0,0-4.14,2.656v-2.324h-3.731v20.215Zm24,0h3.731V440.2a12.837,12.837,0,0,1,.127-1.972,3.994,3.994,0,0,1,.4-1.3,1.7,1.7,0,0,1,.713-0.723,2.373,2.373,0,0,1,1.084-.224,1.769,1.769,0,0,1,1.679.859,6.277,6.277,0,0,1,.489,2.91l0.019,13.516h3.731V438.891a10.209,10.209,0,0,0-.586-4.239,3.686,3.686,0,0,0-3.516-1.933,4.737,4.737,0,0,0-4.14,2.656v-2.324h-3.731v20.215Zm29.469-2.891q-2.579,0-2.578-6.484h8.535v-0.469q0-10.7-6.074-10.7a4.972,4.972,0,0,0-4.619,2.578q-1.5,2.578-1.5,7.93a25.9,25.9,0,0,0,.362,4.648,9.662,9.662,0,0,0,1.123,3.223,4.873,4.873,0,0,0,1.924,1.875,5.958,5.958,0,0,0,2.783.6q5.449,0,5.859-7.129h-3.476q0,3.925-2.344,3.926h0ZM665.1,441.2a13.647,13.647,0,0,1,.722-4.179,1.681,1.681,0,0,1,1.641-1.114,1.7,1.7,0,0,1,1.641,1.114,13.647,13.647,0,0,1,.722,4.179H665.1Zm20.109,12.071h3.731V441.02a5.69,5.69,0,0,1,.839-3.555,3.54,3.54,0,0,1,2.872-1.035,4.6,4.6,0,0,1,.664.058v-3.906a4.868,4.868,0,0,0-2.481.742,7.13,7.13,0,0,0-1.894,2.246v-2.519h-3.731v20.215Zm14.957,8.281h3.184l17.968-41.465h-3.144Zm30.258-8.281h3.281q5.7,0,7.91-1.973a8.9,8.9,0,0,0,2.578-4.59,33.838,33.838,0,0,0,.8-8.125,36.756,36.756,0,0,0-.722-8.34,10.919,10.919,0,0,0-2.422-4.882,6.1,6.1,0,0,0-2.578-1.739,12.6,12.6,0,0,0-3.848-.508h-5v30.157Zm4.062-26.739H735a4.536,4.536,0,0,1,4.512,2.618q1.23,2.618,1.23,9.589,0,6.486-1.289,8.731-1.249,2.246-4.961,2.246V426.527Zm28.192,23.848q-2.579,0-2.578-6.484h8.535v-0.469q0-10.7-6.074-10.7a4.972,4.972,0,0,0-4.619,2.578q-1.5,2.578-1.5,7.93a25.9,25.9,0,0,0,.362,4.648,9.662,9.662,0,0,0,1.123,3.223,4.873,4.873,0,0,0,1.924,1.875,5.958,5.958,0,0,0,2.783.6q5.449,0,5.859-7.129h-3.476q0,3.925-2.344,3.926h0ZM760.1,441.2a13.647,13.647,0,0,1,.722-4.179,1.681,1.681,0,0,1,1.641-1.114,1.7,1.7,0,0,1,1.641,1.114,13.647,13.647,0,0,1,.722,4.179H760.1Zm24.582-8.613a5.329,5.329,0,0,0-3.965,1.543,5.535,5.535,0,0,0-1.5,4,5.66,5.66,0,0,0,.82,3.1,15.19,15.19,0,0,0,3.2,3.086q0.684,0.548,1.153.987a4.44,4.44,0,0,1,.683.771,2.793,2.793,0,0,1,.469,1.621,2.244,2.244,0,0,1-2.558,2.52,5.213,5.213,0,0,1-3.067-1.211v3.613a6.535,6.535,0,0,0,3.281.957,5.562,5.562,0,0,0,4.2-1.621,6.012,6.012,0,0,0,1.582-4.355,5.807,5.807,0,0,0-.762-3.106,7.042,7.042,0,0,0-1.074-1.328,18.9,18.9,0,0,0-1.758-1.523q-2.617-1.994-2.617-3.438a2.176,2.176,0,0,1,.185-0.889,2.21,2.21,0,0,1,.508-0.722,2.421,2.421,0,0,1,.752-0.479,2.455,2.455,0,0,1,.938-0.176,4.747,4.747,0,0,1,2.871,1.016v-3.5a6.927,6.927,0,0,0-3.34-.879h0Zm15.527,20.684h3.75V433.051h-3.75v20.215ZM800.155,425.2a2.4,2.4,0,0,0-.743,1.758,2.53,2.53,0,1,0,5.059.02,2.534,2.534,0,0,0-2.5-2.52,2.6,2.6,0,0,0-1.816.742h0Zm23.89,10.274a7.138,7.138,0,0,0-1.64-2.149,3.229,3.229,0,0,0-2.032-.605,3.873,3.873,0,0,0-3.769,2.519q-1.154,2.637-1.153,8.184,0,5.235,1.2,7.695a3.936,3.936,0,0,0,3.74,2.461q2.46,0,3.652-2.773v3.886a6.59,6.59,0,0,1-.488,3.106,1.867,1.867,0,0,1-1.777.82q-2.4,0-2.4-3.222h-3.613l-0.02.625a5.675,5.675,0,0,0,1.563,4.2,5.756,5.756,0,0,0,4.258,1.543q4.12,0,5.488-2.656a12.572,12.572,0,0,0,.742-5.2V433.051h-3.75v2.422Zm-0.43,13.261a1.822,1.822,0,0,1-1.777,1.485,2.064,2.064,0,0,1-1.953-1.66,20.2,20.2,0,0,1-.566-5.606,17.965,17.965,0,0,1,.546-5.224q0.548-1.63,1.739-1.631,2.5,0,2.5,7.246a19.209,19.209,0,0,1-.489,5.39h0Zm16.6,4.532h3.731V440.2a12.837,12.837,0,0,1,.127-1.972,3.994,3.994,0,0,1,.4-1.3,1.7,1.7,0,0,1,.713-0.723,2.373,2.373,0,0,1,1.084-.224,1.769,1.769,0,0,1,1.679.859,6.277,6.277,0,0,1,.489,2.91l0.019,13.516h3.731V438.891a10.209,10.209,0,0,0-.586-4.239,3.686,3.686,0,0,0-3.516-1.933,4.737,4.737,0,0,0-4.14,2.656v-2.324h-3.731v20.215Zm29.469-2.891q-2.579,0-2.578-6.484h8.535v-0.469q0-10.7-6.074-10.7a4.972,4.972,0,0,0-4.619,2.578q-1.5,2.578-1.5,7.93a25.9,25.9,0,0,0,.362,4.648,9.662,9.662,0,0,0,1.123,3.223,4.873,4.873,0,0,0,1.924,1.875,5.958,5.958,0,0,0,2.783.6q5.449,0,5.859-7.129h-3.476q0,3.925-2.344,3.926h0ZM867.1,441.2a13.647,13.647,0,0,1,.722-4.179,1.681,1.681,0,0,1,1.641-1.114,1.7,1.7,0,0,1,1.641,1.114,13.647,13.647,0,0,1,.722,4.179H867.1Zm20.109,12.071h3.731V441.02a5.69,5.69,0,0,1,.839-3.555,3.54,3.54,0,0,1,2.872-1.035,4.6,4.6,0,0,1,.664.058v-3.906a4.868,4.868,0,0,0-2.481.742,7.13,7.13,0,0,0-1.894,2.246v-2.519h-3.731v20.215Z" transform="translate(-430.156 -420.094)"/>
</svg>
