<svg xmlns="http://www.w3.org/2000/svg" width="152.874" height="38.66" viewBox="0 0 152.874 38.66">
  <defs>
    <style>
      .cls-1 {
        fill: #fff;
        fill-rule: evenodd;
      }
    </style>
  </defs>
  <path id="WORKS" class="cls-1" d="M612.957,1688.05h4.078l2.758-16.29a8.158,8.158,0,0,0,.147-0.88q0.1-.7.268-1.95l0.513-3.61c0.016-.13.053-0.5,0.11-1.09s0.126-1.43.207-2.5q0.024-.27.074-0.69c0.032-.27.065-0.6,0.1-0.97l0.122,1.56q0.123,1.35.232,2.22c0.074,0.59.126,1.03,0.159,1.32l0.513,3.76c0.13,0.88.227,1.55,0.293,2.03s0.105,0.74.122,0.8l2.661,16.29h3.955l6.665-37.7h-4.858L628.9,1665.1l-0.366,2.51q-0.344,2.6-.647,5.28t-0.55,5.56q-0.245-2.73-.622-5.74t-0.94-6.51l-2.539-15.85h-3.907l-2.709,16.31c-0.261,1.51-.5,3.17-0.721,4.96s-0.427,3.75-.622,5.88l-0.122,1.22c-0.033-.33-0.058-0.59-0.074-0.81a4.113,4.113,0,0,0-.048-0.43l-0.269-3.2q-0.147-1.74-.439-3.84l-0.415-2.58-2.564-17.51h-4.907Zm54.141-28.76a15.415,15.415,0,0,0-2.2-6.18c-1.53-2.16-3.874-3.25-7.031-3.25q-5.3,0-7.52,4.2-2.2,4.185-2.2,14.24c0,7.51.74,12.75,2.221,15.69q2.247,4.515,7.74,4.52,5.223,0,7.446-4.2t2.222-14.18a64.248,64.248,0,0,0-.684-10.84h0Zm-5.591,21.75q-0.952,2.835-3.515,2.83-2.613,0-3.565-3.03-0.929-3.195-.928-11.47,0-8.985.879-11.96,0.9-2.955,3.614-2.96t3.588,3.23q0.879,3.195.879,12.98,0,7.575-.952,10.38h0Zm21.3,7.01h5.078v-18.46l6.909,18.46h5.152l-6.934-18.34a5.8,5.8,0,0,0,3.87-3.04,13.415,13.415,0,0,0,1.355-6.5q0-5.28-2.564-7.84-2.027-1.98-6.177-1.98h-6.689v37.7Zm5.078-33.52h0.855a5.365,5.365,0,0,1,2.063.36,3.308,3.308,0,0,1,1.416,1.15,5.405,5.405,0,0,1,.805,2.03,15.1,15.1,0,0,1,.257,3c0,2.16-.407,3.7-1.221,4.61s-2.206,1.37-4.175,1.37v-12.52Zm25.991,33.52h5.078v-19.44l7.08,19.44h5.713l-8.007-19.44,7.421-18.26h-5.127l-7.08,18.26v-18.26H713.88v37.7Zm38.443-38.21a7.912,7.912,0,0,0-6.226,2.61,10.19,10.19,0,0,0-2.295,7.01,11.228,11.228,0,0,0,1.172,5.42,16.117,16.117,0,0,0,1.88,2.56q1.269,1.47,3.2,3.37a30.441,30.441,0,0,1,2.075,2.26,14.7,14.7,0,0,1,1.294,1.79,7.5,7.5,0,0,1,.9,3.69,5.608,5.608,0,0,1-1.172,3.75,4.032,4.032,0,0,1-3.247,1.38,8.634,8.634,0,0,1-4.932-1.98v5.03a8.751,8.751,0,0,0,5.542,1.78,8.1,8.1,0,0,0,6.323-2.76,10.574,10.574,0,0,0,2.466-7.2,12.032,12.032,0,0,0-1.123-5.45,22.767,22.767,0,0,0-4.224-5.44q-1.684-1.68-2.746-2.88a15.49,15.49,0,0,1-1.526-1.95,6.211,6.211,0,0,1-.9-3.4,5.034,5.034,0,0,1,1.269-3.59,4.2,4.2,0,0,1,3.272-1.41,7.413,7.413,0,0,1,4.174,1.66v-4.96a11.016,11.016,0,0,0-5.175-1.29h0Z" transform="translate(-606.438 -1649.84)"/>
</svg>
