<svg xmlns="http://www.w3.org/2000/svg" width="149.188" height="38.66" viewBox="0 0 149.188 38.66">
  <defs>
    <style>
      .cls-1 {
        fill: #333;
        fill-rule: evenodd;
      }
    </style>
  </defs>
  <path id="SKILLS" class="cls-1" d="M616.668,2432.84a7.912,7.912,0,0,0-6.225,2.61,10.19,10.19,0,0,0-2.295,7.01,11.216,11.216,0,0,0,1.172,5.42,16.054,16.054,0,0,0,1.88,2.56q1.269,1.47,3.2,3.37a30.441,30.441,0,0,1,2.075,2.26,14.7,14.7,0,0,1,1.294,1.79,7.5,7.5,0,0,1,.9,3.69,5.6,5.6,0,0,1-1.172,3.75,4.03,4.03,0,0,1-3.247,1.38,8.632,8.632,0,0,1-4.931-1.98v5.03a8.749,8.749,0,0,0,5.542,1.78,8.1,8.1,0,0,0,6.323-2.76,10.574,10.574,0,0,0,2.466-7.2,12.032,12.032,0,0,0-1.123-5.45,22.767,22.767,0,0,0-4.224-5.44q-1.684-1.68-2.747-2.88a15.464,15.464,0,0,1-1.525-1.95,6.2,6.2,0,0,1-.9-3.4,5.03,5.03,0,0,1,1.27-3.59,4.2,4.2,0,0,1,3.271-1.41,7.413,7.413,0,0,1,4.175,1.66v-4.96a11.017,11.017,0,0,0-5.176-1.29h0Zm21.255,38.21H643v-19.44l7.08,19.44h5.713l-8.008-19.44,7.422-18.26h-5.127L643,2451.61v-18.26h-5.078v37.7Zm31.045,0h5.078v-37.7h-5.078v37.7Zm20.889,0h13.379v-4.3h-8.3v-33.4h-5.078v37.7Zm26.553,0h13.378v-4.3h-8.3v-33.4H716.41v37.7Zm33.95-38.21a7.912,7.912,0,0,0-6.226,2.61,10.19,10.19,0,0,0-2.295,7.01,11.228,11.228,0,0,0,1.172,5.42,16.181,16.181,0,0,0,1.88,2.56q1.269,1.47,3.2,3.37a30.441,30.441,0,0,1,2.075,2.26,14.6,14.6,0,0,1,1.294,1.79,7.5,7.5,0,0,1,.9,3.69,5.608,5.608,0,0,1-1.172,3.75,4.031,4.031,0,0,1-3.247,1.38,8.634,8.634,0,0,1-4.932-1.98v5.03a8.751,8.751,0,0,0,5.542,1.78,8.1,8.1,0,0,0,6.323-2.76,10.574,10.574,0,0,0,2.466-7.2,12.018,12.018,0,0,0-1.123-5.45,22.767,22.767,0,0,0-4.224-5.44q-1.685-1.68-2.746-2.88a15.49,15.49,0,0,1-1.526-1.95,6.211,6.211,0,0,1-.9-3.4,5.034,5.034,0,0,1,1.269-3.59,4.2,4.2,0,0,1,3.272-1.41,7.418,7.418,0,0,1,4.175,1.66v-4.96a11.023,11.023,0,0,0-5.176-1.29h0Z" transform="translate(-608.156 -2432.84)"/>
</svg>
