<svg xmlns="http://www.w3.org/2000/svg" width="196.44" height="38.65" viewBox="0 0 196.44 38.65">
  <defs>
    <style>
      .cls-1 {
        fill: #222728;
        fill-rule: evenodd;
      }
    </style>
  </defs>
  <path id="CONTACT" class="cls-1" d="M953.859,2422.86a9.188,9.188,0,0,0-8.557,4.93q-2.8,4.935-2.8,15.04,0,18.705,11.45,18.7a8.285,8.285,0,0,0,4.1-1.02v-4.67a7.539,7.539,0,0,1-3,.79q-7.154,0-7.153-13.97a48.7,48.7,0,0,1,.4-6.73,17.445,17.445,0,0,1,1.245-4.7,6.459,6.459,0,0,1,2.136-2.74,5.287,5.287,0,0,1,3.1-.89,7.758,7.758,0,0,1,3.271.95v-4.57a8.833,8.833,0,0,0-4.2-1.12h0Zm36.66,9.45a15.415,15.415,0,0,0-2.2-6.18q-2.295-3.24-7.032-3.24-5.3,0-7.519,4.19-2.2,4.185-2.2,14.24,0,11.28,2.221,15.7,2.247,4.515,7.74,4.51,5.223,0,7.446-4.2t2.222-14.18a64.329,64.329,0,0,0-.684-10.84h0Zm-5.591,21.75q-0.952,2.835-3.516,2.83-2.611,0-3.564-3.02-0.928-3.21-.928-11.48,0-8.985.879-11.96,0.9-2.955,3.613-2.96T985,2430.7q0.879,3.2.879,12.99,0,7.56-.952,10.37h0Zm21.3,7.01h5.01l-0.27-16.43c0-.47-0.01-0.9-0.01-1.27s-0.02-.69-0.04-0.95l-0.27-4.67-0.27-3.83c-0.01-.21-0.04-0.47-0.07-0.77s-0.07-.66-0.12-1.09c0.09,0.43.18,0.8,0.25,1.13a7.379,7.379,0,0,1,.16.83q0.585,2.73,1.28,5.22t1.48,4.86l5.69,16.97h4.76v-37.7h-5.1v14.07q0,3.12.29,6.66t0.9,7.91a135.265,135.265,0,0,0-3.88-13.6l-5.05-15.04h-4.74v37.7Zm30.39-33.25h5.86v33.25h4.98v-33.25h5.69v-4.45h-16.53v4.45Zm26.5,33.25H1068l1.44-7.35h7.48l1.41,7.35h5.03l-8.08-37.7h-3.96Zm7.03-11.28,0.93-4.83q0.735-3.915,1.27-7.39t0.88-6.87q0.7,6.96,1.83,13.08l1.12,6.01h-6.03Zm36.78-26.93a9.177,9.177,0,0,0-8.55,4.93q-2.805,4.935-2.8,15.04,0,18.705,11.45,18.7a8.258,8.258,0,0,0,4.1-1.02v-4.67a7.519,7.519,0,0,1-3,.79q-7.155,0-7.15-13.97a48.587,48.587,0,0,1,.4-6.73,17.215,17.215,0,0,1,1.25-4.7,6.465,6.465,0,0,1,2.13-2.74,5.29,5.29,0,0,1,3.1-.89,7.739,7.739,0,0,1,3.27.95v-4.57a8.813,8.813,0,0,0-4.2-1.12h0Zm15.47,4.96h5.86v33.25h4.98v-33.25h5.69v-4.45H1122.4v4.45Z" transform="translate(-942.5 -2422.88)"/>
</svg>
