<svg xmlns="http://www.w3.org/2000/svg" width="144.374" height="38.625" viewBox="0 0 144.374 38.625">
  <defs>
    <style>
      .cls-1 {
        fill: #333;
        fill-rule: evenodd;
      }
    </style>
  </defs>
  <path id="ABOUT" class="cls-1" d="M610.439,980.046h4.883l1.44-7.348h7.471l1.416,7.348h5.029l-8.081-37.7h-3.955Zm7.031-11.279,0.928-4.834q0.732-3.906,1.269-7.385t0.879-6.873q0.708,6.958,1.831,13.086l1.123,6.006h-6.03Zm26.187,11.279h6.64q8.886,0,8.887-10.376a11.087,11.087,0,0,0-1.148-5.664,8.108,8.108,0,0,0-4.174-3.125,6.567,6.567,0,0,0,3.711-2.807,11.943,11.943,0,0,0,1.049-5.689q0-10.034-8.081-10.034h-6.884v37.7Zm4.785-33.593a0.709,0.709,0,0,1,.244-0.025h0.61q4.395,0,4.395,6.1,0,3.614-1.148,5.053-1.147,1.368-4.1,1.368v-12.5Zm0,16.528q3.051,0,4.272,1.465,1.245,1.44,1.245,5.054,0,3.514-1.2,4.858t-4.321,1.343v-12.72Zm43.984-11.694a15.394,15.394,0,0,0-2.2-6.177q-2.3-3.247-7.031-3.247-5.3,0-7.52,4.2-2.2,4.174-2.2,14.233,0,11.28,2.222,15.7,2.246,4.516,7.739,4.516,5.224,0,7.446-4.2t2.222-14.185a64.225,64.225,0,0,0-.684-10.839h0Zm-5.591,21.753q-0.951,2.832-3.515,2.832-2.613,0-3.565-3.028-0.927-3.2-.927-11.474,0-8.985.878-11.963,0.9-2.954,3.614-2.954t3.589,3.222q0.879,3.2.878,12.989,0,7.567-.952,10.376h0Zm21.3-4.053q0,6.177,1.44,8.349,2.076,3.174,7.154,3.174,4.614,0,6.86-2.466,1.88-2.172,1.88-8.325V942.351h-4.98v27.368q0,3.663-.733,4.859-0.708,1.172-2.93,1.172a3.114,3.114,0,0,1-2.978-1.343q-0.732-1.343-.732-5.42V942.351h-4.981v26.636Zm30.142-22.193h5.859v33.252h4.98V946.794h5.689v-4.443H738.281v4.443Z" transform="translate(-610.438 -941.875)"/>
</svg>
