<svg xmlns="http://www.w3.org/2000/svg" width="89.906" height="18.562" viewBox="0 0 89.906 18.562">
  <defs>
    <style>
      .cls-1 {
        fill: #151630;
        fill-rule: evenodd;
      }
    </style>
  </defs>
  <path id="Joint_Core" data-name="Joint Core" class="cls-1" d="M65.383,149.757v0.726q0,2.262-1.71,2.262a3.956,3.956,0,0,1-1.723-.621v2.437a4.776,4.776,0,0,0,2.209.469,3.618,3.618,0,0,0,3.171-1.371,5.435,5.435,0,0,0,.662-3.059V136.714H65.383v13.043ZM79.417,146a5.858,5.858,0,0,0-.743-1.981,3.112,3.112,0,0,0-1.267-1.16,4.1,4.1,0,0,0-1.816-.375q-4.044,0-4.044,6.27Q71.547,155,75.6,155t4.057-6.153A14.459,14.459,0,0,0,79.417,146Zm-2.578,5.988a1.212,1.212,0,0,1-1.186.926,1.254,1.254,0,0,1-1.211-.938,10.751,10.751,0,0,1-.337-3.257,10.883,10.883,0,0,1,.337-3.27,1.254,1.254,0,0,1,1.211-.937,1.223,1.223,0,0,1,1.2.949,11.161,11.161,0,0,1,.337,3.328,9.8,9.8,0,0,1-.349,3.2h0Zm6.383,2.824h2.4V142.678h-2.4v12.129Zm-0.037-16.84a1.4,1.4,0,0,0-.474,1.055,1.431,1.431,0,0,0,.462,1.09,1.7,1.7,0,0,0,2.3,0,1.45,1.45,0,0,0,0-2.145,1.59,1.59,0,0,0-1.123-.445,1.724,1.724,0,0,0-1.161.445h0Zm6.179,16.84h2.384v-7.84a7.253,7.253,0,0,1,.081-1.183,2.306,2.306,0,0,1,.256-0.779,1.05,1.05,0,0,1,.456-0.434,1.592,1.592,0,0,1,.693-0.135,1.152,1.152,0,0,1,1.073.516,3.573,3.573,0,0,1,.312,1.746l0.012,8.109h2.384v-8.625a5.781,5.781,0,0,0-.374-2.543,2.391,2.391,0,0,0-2.247-1.16,3.054,3.054,0,0,0-2.646,1.594v-1.4H89.364v12.129Zm11.55-12.129H99.6v1.782h1.31v10.347H103.3V144.46h1.3v-1.782h-1.3v-3.4h-2.384v3.4Zm19.135-6.211a4.762,4.762,0,0,0-4.375,2.368q-1.43,2.367-1.43,7.218,0,8.978,5.855,8.977a4.437,4.437,0,0,0,2.1-.492V152.3a4.124,4.124,0,0,1-1.536.375q-3.657,0-3.657-6.7a22,22,0,0,1,.206-3.228,7.944,7.944,0,0,1,.637-2.256,3.141,3.141,0,0,1,1.092-1.318,2.856,2.856,0,0,1,1.585-.428,4.209,4.209,0,0,1,1.673.457v-2.191a4.691,4.691,0,0,0-2.147-.54h0ZM133.163,146a5.85,5.85,0,0,0-.742-1.981,3.111,3.111,0,0,0-1.267-1.16,4.1,4.1,0,0,0-1.816-.375q-4.045,0-4.045,6.27,0,6.246,4.057,6.246t4.057-6.153A14.4,14.4,0,0,0,133.163,146Zm-2.577,5.988a1.212,1.212,0,0,1-1.186.926,1.254,1.254,0,0,1-1.211-.938,10.775,10.775,0,0,1-.337-3.257,10.907,10.907,0,0,1,.337-3.27,1.254,1.254,0,0,1,1.211-.937,1.222,1.222,0,0,1,1.2.949,11.151,11.151,0,0,1,.337,3.328,9.8,9.8,0,0,1-.349,3.2h0Zm6.406,2.824h2.384V147.46a3.253,3.253,0,0,1,.537-2.133,2.345,2.345,0,0,1,1.835-.621,3.025,3.025,0,0,1,.424.035V142.4a3.26,3.26,0,0,0-1.585.445,4.375,4.375,0,0,0-1.211,1.348v-1.512h-2.384v12.129Zm11.057-1.734q-1.649,0-1.648-3.891h5.455V148.9q0-6.422-3.882-6.422a3.224,3.224,0,0,0-2.952,1.547,9.271,9.271,0,0,0-.955,4.758,14.617,14.617,0,0,0,.231,2.789,5.576,5.576,0,0,0,.718,1.934,3.04,3.04,0,0,0,1.229,1.125,4.015,4.015,0,0,0,1.779.363q3.483,0,3.745-4.278h-2.222q0,2.357-1.5,2.356h0Zm-1.648-5.508a7.75,7.75,0,0,1,.462-2.508,1.076,1.076,0,0,1,1.049-.668,1.091,1.091,0,0,1,1.048.668,7.75,7.75,0,0,1,.462,2.508H146.4Z" transform="translate(-61.938 -136.469)"/>
</svg>
